<svg width="137" height="108" viewBox="0 0 137 108" fill="none" xmlns="http://www.w3.org/2000/svg">
<path d="M56.2301 106.93H5.39011C1.01011 106.93 -0.30989 105.18 1.01011 100.79C1.45011 99.4799 2.32011 99.4799 3.20011 99.0399H6.71011C11.9701 99.0399 15.0401 96.4099 15.0401 91.1499V61.3499C15.0401 58.2799 13.7301 56.9699 10.6601 57.4099H3.65011C1.02011 57.4099 1.02011 56.0999 1.02011 53.8999C1.02011 52.1499 0.58011 49.9599 3.21011 49.9599H10.2201C13.2901 49.9599 15.0401 48.6499 15.0401 45.5799V14.0299C15.0401 9.20994 14.1601 8.76994 9.34011 7.88994C8.03011 7.44994 6.27011 7.44994 4.96011 7.44994C1.89011 7.44994 1.02011 6.13994 1.02011 3.50994C1.02011 0.439941 2.77011 0.439941 4.96011 0.439941H104.87C114.51 0.439941 122.84 3.50994 129.41 10.5199C140.37 22.7899 138.61 40.3199 125.47 50.8399C123.13 52.5933 123.13 54.3466 125.47 56.0999C135.11 63.9899 139.06 74.9399 135.55 86.3399C132.48 97.2999 121.53 106.06 110.13 106.5C93.4801 107.81 77.2601 106.94 60.6101 106.94C58.8601 106.94 57.5401 106.94 56.2301 106.94V106.93ZM68.0601 99.4799H102.24C105.75 99.4799 109.25 99.4799 112.32 98.5999C124.15 95.5299 134.23 81.5099 125.47 67.9199C120.65 60.0299 112.76 57.3999 104 57.3999H26.4301C22.4901 57.3999 21.6101 58.2799 21.6101 62.2199V92.0199C21.6101 97.7199 23.8001 99.4699 29.0601 99.4699H68.0601V99.4799ZM70.2501 49.9599C81.6401 49.5199 95.2301 50.3999 108.82 49.5199C118.02 48.6399 126.35 42.5099 128.54 33.7399C130.73 25.8499 127.23 17.5199 119.77 12.2699C114.51 8.75994 108.38 7.88994 102.68 7.88994H28.1801C22.9201 7.88994 22.0401 8.76994 22.0401 14.0299V43.8299C22.0401 49.5299 22.4801 49.9699 28.1801 49.9699C41.3301 49.9699 54.4801 49.9699 70.2501 49.9699V49.9599Z" fill="#5C7F67"/>
</svg>
